<svg xmlns="http://www.w3.org/2000/svg" xmlns:xlink="http://www.w3.org/1999/xlink" viewBox="0 0 18.69 18.39"><defs><style>.cls-1{fill:none;}.cls-2{clip-path:url(#clip-path);}.cls-3{fill:#1a1444;fill-rule:evenodd;}</style><clipPath id="clip-path" transform="translate(0 0)"><rect class="cls-1" width="18.69" height="18.39"/></clipPath></defs><title>Asset 1</title><g id="Layer_2" data-name="Layer 2"><g id="Layer_1-2" data-name="Layer 1"><g class="cls-2"><path class="cls-3" d="M13,15.62a1,1,0,0,1-1,1H2.77a1,1,0,0,1-1-1V6.71a1,1,0,0,1,1-1H9.64V3.94H2.77A2.77,2.77,0,0,0,0,6.71v8.91a2.77,2.77,0,0,0,2.77,2.77H12a2.77,2.77,0,0,0,2.77-2.77V9.13H13Z" transform="translate(0 0)"/><path class="cls-3" d="M18.65.86A.82.82,0,0,0,17.83,0L12.27,0l0,1.63,3.58,0L6.63,10.89l1.16,1.17L17,2.82l0,3.58,1.63,0Z" transform="translate(0 0)"/></g></g></g></svg>