<svg xmlns="http://www.w3.org/2000/svg" viewBox="0 0 359.84 91.52"><defs><style>.cls-1{fill:#1a1444;}.cls-2{fill:#fff;}</style></defs><title>Asset 1</title><g id="Layer_2" data-name="Layer 2"><g id="Layer_1-2" data-name="Layer 1"><path class="cls-1" d="M81.06,50.86c0,2.28,1,3,4.37,3s5-1,7.22-5.65h.8l-.8,7.22H71.43v-.81c3.18-.81,3.51-1.52,3.51-4.51V32.35c0-2.47-.61-3.18-3.51-3.9v-.8H84.58v.8c-2.76.72-3.52,1.29-3.52,3.71Z"/><path class="cls-1" d="M102.38,51.57c0,1.81.9,2.8,2.89,3v.81H94v-.81c2.42-.47,3-1.14,3-3.42V41.65c0-2.18-.61-2.8-3.23-3.32v-.81l7.79-.66h.81ZM99.72,25.71a3.07,3.07,0,0,1,3.09,3.07,3.12,3.12,0,0,1-3.09,3.14,3.16,3.16,0,0,1-3.13-3.14,3.11,3.11,0,0,1,3.13-3.07"/><path class="cls-1" d="M114.06,41.36c1.8-1.65,2.75-2.13,4.18-2.13,3.17,0,5.31,3,5.31,7.41,0,5.84-2.66,8.21-6.65,8.21-2.14,0-2.84-1-2.84-3Zm0-15.65h-.81l-7.27.51V27c1.67.29,2.71,1.14,2.71,2.66V55.42a44.86,44.86,0,0,0,8.74.7c8.73,0,12-4.55,12-10.06,0-5.22-3.7-9.25-8.54-9.25a9.16,9.16,0,0,0-6.88,3.28Z"/><path class="cls-1" d="M137.36,43.79c.14-3.42,1.61-5.7,3.8-5.7s3.8,2.37,4,5.7Zm13.57,1.09c-.66-4.94-4.31-8.07-9.39-8.07a9.69,9.69,0,0,0-10,9.78,9.42,9.42,0,0,0,9.78,9.54,10.14,10.14,0,0,0,9.58-6.22h-.8c-1.71,2.61-3.8,3.89-6.41,3.89-3.32,0-6.64-3-6.36-8.92Z"/><path class="cls-1" d="M168.12,43.74c-1.57-1.52-2.8-2.33-4-2.33-1.62,0-2.61.67-4,2.56v7.32c0,2.13.43,2.8,3,3.32v.81H151.74v-.81c2.38-.57,3-1.28,3-3.32V41.84c0-2.28-1-3.32-3.27-3.51v-.81l7.83-.71h.81v5.7h.09c1.76-3.9,3.7-5.7,5.94-5.7a4.14,4.14,0,0,1,3.17,1.52Z"/><path class="cls-1" d="M198.35,37.52v.81c2.28.47,2.8,1.9,1.19,5.69l-2.47,5.75-3.8-7.84c-1.1-2.27-1.1-3.32.95-3.6v-.81H178.36V30.59h-.9A33.54,33.54,0,0,1,169.77,38V39H173V50.43c0,4.08,2.71,5.7,6.08,5.7A6,6,0,0,0,184.81,53l-.57-.52a3.35,3.35,0,0,1-2.61,1.42c-2.51,0-3.27-1.71-3.27-4.6V39h4.8c2.61,0,3.37.95,4.51,3.37l6.55,13.81c-2.18,5.88-4.08,8.26-7.4,8.26a6.66,6.66,0,0,1-2.43-.43l-1.09,5.42a9.82,9.82,0,0,0,1.52.09c3.71,0,5.75-1.57,7.64-5.93l9-20.61c1.48-3.32,2-4,4.32-4.6v-.81Z"/><path class="cls-1" d="M250.16,50.46c.33,2.41,1.52,3.79,4.23,4.31v.8H240.67v-.8c3-.75,3.56-2.51,3-6.12l-2.28-15.86h-.1l-9,22.78h-1l-8.92-22.78h-.09l-2.42,16.33c-.48,3.23.14,5.42,3.27,5.65v.8H213.09v-.8c3-.13,4.27-1.85,4.93-6.12l2.76-18.13a6.12,6.12,0,0,0-4-1.91v-.8h10L234,46.13l7.36-18.32h9.4v.8c-2.85.53-3.52,1.95-3.14,4.52Z"/><path class="cls-1" d="M256.57,41.58c0-2-.67-2.71-2.81-3.08v-.82l7.36-.71h.81V50.16c0,2.15,1.37,3.14,3.32,3.14s2.9-.76,4.46-3.23V41.15c0-1.47-.95-2.33-2.8-2.65v-.82l7.36-.71h.81V51.21c0,2.37.48,2.94,2.85,3.56v.8l-8.22.72V51.93h-.09c-2,3-4.23,4.36-7.12,4.36-3.71,0-5.93-2-5.93-5.46Z"/><path class="cls-1" d="M282.06,39.11h-3.23v-.9a33.61,33.61,0,0,0,7.68-7.46h.91v6.93h5.89v1.43h-5.89v10.3c0,2.9.76,4.61,3.28,4.61a3.4,3.4,0,0,0,2.61-1.43l.56.52a6,6,0,0,1-5.74,3.18c-3.37,0-6.07-1.61-6.07-5.7Z"/><path class="cls-1" d="M296.77,41.58c0-2-.67-2.71-2.8-3.08v-.82l7.36-.71h.81V50.16c0,2.15,1.37,3.14,3.31,3.14s2.9-.76,4.47-3.23V41.15c0-1.47-.95-2.33-2.8-2.65v-.82l7.35-.71h.81V51.21c0,2.37.48,2.94,2.85,3.56v.8l-8.21.72V51.93h-.1c-2,3-4.22,4.36-7.12,4.36-3.7,0-5.93-2-5.93-5.46Z"/><path class="cls-1" d="M330.37,52.49c-1.23,1.24-2.27,1.85-3.37,1.85-1.47,0-2.47-1.28-2.47-3.22,0-2.42,1.38-3.51,5.84-5.42Zm5.41-8.83c0-4.93-4-6.69-7.87-6.69-4.18,0-7.08,2.23-8,6.08h.72a5.74,5.74,0,0,1,5.36-3c3.23,0,4.46,1.52,4.46,4.7-4.37,1.61-11.48,2-11.48,6.83,0,2.61,2.42,4.7,5.36,4.7A7.74,7.74,0,0,0,330,54.15l.42-.37a4.21,4.21,0,0,0,4.32,2.51c2.61,0,4.18-1.24,4.37-3.46h-.76c-.19,1.09-.67,1.65-1.42,1.65s-1.1-.7-1.1-2.36Z"/><path class="cls-1" d="M342.76,30.75c0-2.51-.8-3.41-3.37-3.56v-.8l7.93-.53h.81V51.21c0,2.37.52,2.94,3.17,3.56v.8H339.39v-.8c2.62-.43,3.37-1.28,3.37-3.56Z"/><path class="cls-1" d="M65,36.55c-.21-.28-.73,0-.73,0l-8.34,3.09a31.25,31.25,0,0,0-2.24-4.44l2.7-7.37s.34-.74,0-.91-.82.3-.82.3l-4.91,4a21.25,21.25,0,0,0-6.75-4.87,20.92,20.92,0,0,0-3-1.08l-1.52-5.83s-.14-.59-.53-.59-.49.55-.49.55l-1,5.16a25.3,25.3,0,0,0-3.3-.21,23.58,23.58,0,0,0-9.76,2,20.35,20.35,0,0,0-3.44,1.95l-.52.39c-1-2.61-1.81-4.73-2-5.37a9.48,9.48,0,0,0,2-3.63,6.17,6.17,0,0,0-.14-3.91,10.92,10.92,0,0,1-.88-2.49,1.55,1.55,0,0,1,.48-1,1.11,1.11,0,0,0-1-1,5.93,5.93,0,0,0-1.22.09c-.11-.19-.31-.15-.16-.82.24-1,2.17-1.48,3.75-2.09a4.63,4.63,0,0,0,3.19-4.53A3.7,3.7,0,0,0,22.39.4a4.74,4.74,0,0,1-1.89,2,3.49,3.49,0,0,1-2.26.36A2.59,2.59,0,0,0,16.91,0a3.43,3.43,0,0,1-3,1.2c-1.63-.05-1.74-.43-4-.43-3.26,0-6,2-6.3,4.87A6.59,6.59,0,0,0,4.61,9.92a10.42,10.42,0,0,0-1.53,1.5,1.24,1.24,0,0,0-1.67-.13,2.16,2.16,0,0,1,.07,1.38A18.42,18.42,0,0,0,0,17.33a5.82,5.82,0,0,0,3.13,5.92A1.44,1.44,0,0,0,3,24.75a1.14,1.14,0,0,0,1.12.58A1.55,1.55,0,0,0,3.83,27c.27.68,1,1.67,1.73,1.67a12.08,12.08,0,0,0,.38,2.48,2.52,2.52,0,0,0-.44,1.6,1.72,1.72,0,0,0,1.25,1.67,4.24,4.24,0,0,0,.54,1.13,3.89,3.89,0,0,0,1,.94,3.18,3.18,0,0,0,1.77.62A7.08,7.08,0,0,0,11.61,37c0,.19.08,2,.16,4A48,48,0,0,0,9.2,57.2h0c0,10.62,3,20.08,8.81,26.17a5.69,5.69,0,0,0,1.26,1,66.42,66.42,0,0,1,4.56-6.6,23.82,23.82,0,0,1,2.37-2.59C27.56,74,28.87,73,30.15,72A33.22,33.22,0,0,1,41.63,67c-4.36,2.25-6.84,3.46-10.94,7a40.53,40.53,0,0,0-9.56,11.54,4.48,4.48,0,0,0,2.32,1c.59-.7,3.67-6.34,8.39-10.87,9.55-8.94,20.8-11,26.69-10.9A56,56,0,0,0,59,57.2a52,52,0,0,0-1.34-12.05l7-7.83s.48-.49.27-.77"/><path class="cls-2" d="M12.71,33a5.36,5.36,0,0,0-2.42-.75A4.67,4.67,0,0,0,7.88,33a.85.85,0,0,1-.21-1.09c.2-.47.48-.55.48-.55l-.26-4.45a12.85,12.85,0,0,1,1.59-1,.69.69,0,0,0,.5-.71A8.79,8.79,0,0,1,11.79,27a3.55,3.55,0,0,1,.68,1.94,12.32,12.32,0,0,1-.1,2.45c.28.24.54.44.58.81a1.41,1.41,0,0,1-.24.82"/><path class="cls-2" d="M53.33,46.9a8.47,8.47,0,0,0-1.67-3.73l10.59-4.69Z"/><path class="cls-2" d="M24.3,29.37l9,8.12a6.49,6.49,0,0,0-2.52,2.87Z"/><path class="cls-2" d="M29.54,45.46A3.32,3.32,0,0,0,29,46.8a3.67,3.67,0,0,0,.05,1.38l-2.75-1.89A21.84,21.84,0,0,0,26.14,44s0-.16,0-.24Z"/><path class="cls-2" d="M14.41,46.25c-.17-.3-1-16.84-1-17.42l.89-.64V28a2.2,2.2,0,0,1-1.63-.65l-.24-5.07a4,4,0,0,1-2.14-.68A1.41,1.41,0,0,1,10,19.75a6.23,6.23,0,0,0,2.86.68c.24,0,.73.54,1,.65s.87.43,1.13.54.37.65.44.85,8.26,21.47,8.4,21.71.61,3.81.64,4.08a25.18,25.18,0,0,0,1.5,3.4,6.58,6.58,0,0,0-4.33,2,14.11,14.11,0,0,0-3,5.87c-.11-.75-4.12-13-4.29-13.31"/><path class="cls-2" d="M24.82,66.6a20.7,20.7,0,0,1-2.35,8.12c-.77,1.31-2.93,4-3.68,5C19.6,78,20.24,74.1,20.18,71c0-2-.64-6.38-.11-9.29A10.71,10.71,0,0,1,23.61,55,6.62,6.62,0,0,1,30,53.56L32.5,58.3a5.77,5.77,0,0,0-4.32.89c-2.24,1.71-3,4-3.36,7.41"/><path class="cls-2" d="M25.07,73a43.92,43.92,0,0,0,1.64-6.63c.29-1.68.56-4.14,2.57-5.81a4.18,4.18,0,0,1,3.26-.72l2.84,5.8a1.71,1.71,0,0,0,1.66.79c-2.67.87-9.41,4.07-12,6.57"/><path class="cls-2" d="M49.31,54.51a1.77,1.77,0,0,0,0,1.88c.28.54,1.79,3.33,1.79,3.33a17.81,17.81,0,0,0,1.3,2.71c.82,0,1.7,0,2.64,0-1-2.23-3.28-6.54-3.28-6.54l-.16-3.48a8.6,8.6,0,0,0-2.25,2.1"/><path class="cls-2" d="M37.16,36a10.7,10.7,0,0,1,4.48.44L39.06,21.86Z"/><path class="cls-2" d="M15.47,22.47c-.07-.2-.21-.75-.44-.85s-.8-.42-1.13-.54-.78-.65-1-.65A6.23,6.23,0,0,1,10,19.75a1.41,1.41,0,0,0,.28,1.87,4,4,0,0,0,2.14.68l.24,5.07a2.2,2.2,0,0,0,1.63.65v.17l-.89.64c0,.58.82,17.12,1,17.42s4.18,12.56,4.29,13.31a14.21,14.21,0,0,1,3-5.88,6.61,6.61,0,0,1,4.33-2,25.18,25.18,0,0,1-1.5-3.4c0-.27-.5-3.85-.64-4.08s-8.33-21.5-8.4-21.71"/><path class="cls-2" d="M10.24,18.42a5.27,5.27,0,0,1,3.95,1.47,2.13,2.13,0,0,0-.78-2.06,5.21,5.21,0,0,0-3.3-.92,4.59,4.59,0,0,0-2.87.9,1.93,1.93,0,0,0-.59,2c.21-.65,1.68-1.41,3.59-1.4"/><path class="cls-2" d="M6.1,6.28a3.74,3.74,0,0,0,.59,2.35c.23.3.78.9,1.19.88.58,0,1.12-1.14,2.48-1.09.89,0,1.46,1.28,2.21,1.33.58,0,.88-.54,1.47-.61s.68.2,1,.51a3.25,3.25,0,0,1,1.26-1.36c.92-.69,4-1.33,5.38-2.52a2.56,2.56,0,0,0,.6-2.44A4.7,4.7,0,0,1,19,4.85a8.49,8.49,0,0,1-2.89-.57,1.74,1.74,0,0,0,.15-1.61,8.66,8.66,0,0,1-3.11.52c-.74,0-2.21-.3-3.34-.24A3.67,3.67,0,0,0,6.1,6.28"/><path class="cls-2" d="M10.38,14c5.38.1,7.8,2.59,7.88,4.63a3.94,3.94,0,0,0,.2-1.88c0-.54-.85-2.07-.89-2.58a4.45,4.45,0,0,1,.21-1.32c-.34.06-1.53.53-2,.13s-.17-1.53-.89-1.8-1.83.58-2.55.47S11,10.57,10.23,10.57s-1.13.91-2.05,1.12c-.71.16-1.56-.27-2-.24s-.74.39-1,.84a1.13,1.13,0,0,1-.91.76c-.43.1-1.06-.27-1.36-.2a2.25,2.25,0,0,1,.14,1.76A8.66,8.66,0,0,0,2.2,17a3.5,3.5,0,0,0,.4,1.72C2.47,15.8,5.69,13.91,10.38,14"/><path class="cls-2" d="M7,24.31a3.22,3.22,0,0,0-1.53,1.32,3.41,3.41,0,0,0,1,1.63,3.24,3.24,0,0,1,.83-1.35,6,6,0,0,1,1-.54.56.56,0,0,0,.37-.58A1.59,1.59,0,0,0,8.42,24c.27,0,.77,0,.94-.23A1.49,1.49,0,0,0,9.61,23c0-.31-.14-.38-.44-.41a11,11,0,0,0-1.64,0s.69-.36.89-.45a.65.65,0,0,0,.31-.48,3.05,3.05,0,0,0-.07-1,7.69,7.69,0,0,0-3.3,1.36l.37.92-.67,0a2.69,2.69,0,0,0,.17,1.59A7.94,7.94,0,0,1,7,24.31"/><path class="cls-2" d="M51,45.62c-.13-.66-1.78-2.63-4.61-4.77-2.2-1.68-5.44-3.33-8.1-3.32-4.49,0-6.34,3.12-6.68,4.72a5.33,5.33,0,0,0,.05,2.61,2.86,2.86,0,0,0-1.12,1.8A1.92,1.92,0,0,0,31,48.33a3.45,3.45,0,0,1,.77-1.94,5.38,5.38,0,0,1,1.71-1.16l.1,1.23c-.58.34-1.3,1-1.35,1.43l.05,2L33.81,49l.3.63-.56,3.57.87-.16,1.58.65L34.47,55v.51a.92.92,0,0,1,.77-.29,9.28,9.28,0,0,1,1.93.65l-.05.31h-2.7c-.11.36.21.63.41.78a6.22,6.22,0,0,1,.93-.28c.2,0,.68.12,1.08.17l-.49.66a1,1,0,0,1-.71.09c-.26-.05-.51.31-.51.6a6.83,6.83,0,0,0,.2,1.08c.25,1.14,1.42.91,1.57.9a23,23,0,0,0,3.18-.94l-2.34,3.28,1,3.5a57.29,57.29,0,0,1,11.15-3.1c-.55-.9-.64-1.26-1.31-2.61L46.05,54.4l.36-.87a2.41,2.41,0,0,0,2-.66,6.71,6.71,0,0,0,1.48-1.79.84.84,0,0,0-1,.06c-.31.2-.54.59-1,.4s-.24-.7-.19-1.16-.53-.47-.93-.11A1.49,1.49,0,0,1,45,49.91a38.3,38.3,0,0,0-4.24-3.37,7.3,7.3,0,0,0-4.64-.75c-.81.14-1.38.5-1.68.34l-1-1.56.17-.1c.35.15.69.44,1.15.29A13,13,0,0,1,38,44.25a16,16,0,0,1,5.61,1.17c0,1.33,2.72,3,3.93,3.16a3.2,3.2,0,0,0,2.25-.51l-2.61-2.28L48.55,44s2.2,2.09,2.5,2.5a2,2,0,0,0,0-.92M35.34,48.28a8.93,8.93,0,0,1,2.17-.87c1.56-.34,3.28.6,4.51,1.56l-.23.37L40,49.75a2.48,2.48,0,0,0-1.69-.4,3.37,3.37,0,0,0-1.12.26l.35.56-.81.2a3.49,3.49,0,0,0-1.42-1.17Zm-2.66-4c-.46-1.54.77-3.07,1.33-3.63l.86,2a12.39,12.39,0,0,0-2.19,1.64m8.06-1.74c-.81-.56-3.52-.46-4.64-.2L35.28,40a5.37,5.37,0,0,1,2.86-.76,7.28,7.28,0,0,1,3.06.67Zm5.31,2.41a24.52,24.52,0,0,0-4-2l1-2.5a37.43,37.43,0,0,1,4.29,2.7Z"/><path class="cls-2" d="M45.7,38.27a19.8,19.8,0,0,1,3.66,2.57l5.41-11.53Z"/><path class="cls-1" d="M356.72,49.24a3.21,3.21,0,1,1-3.12,3.2,3.12,3.12,0,0,1,3.12-3.2m0,5.71a2.51,2.51,0,1,0-2.37-2.51A2.38,2.38,0,0,0,356.72,55m-1.21-4.19h1.32c.85,0,1.31.29,1.31,1a.87.87,0,0,1-.87.94l.94,1.52h-.71l-.87-1.5h-.47v1.5h-.65Zm.65,1.49h.6c.4,0,.74,0,.74-.52s-.39-.47-.73-.47h-.61Z"/><rect class="cls-1" x="71.92" y="65.39" width="108.51" height="1.13"/><rect class="cls-1" x="195.25" y="65.39" width="156.51" height="1.13"/><path class="cls-1" d="M134.4,76.05h2.84V91.14H134.4Z"/><path class="cls-1" d="M145.61,76.05h2.61l6.34,10.74h0V76.05h2.59V91.14h-2.61l-6.34-10.75h0V91.14h-2.59Z"/><path class="cls-1" d="M166,86.6a5.27,5.27,0,0,0,4.56,2.29c1.37,0,3.2-.47,3.2-1.93,0-1.19-1.11-1.53-3.12-2L169,84.59c-2.42-.55-4.54-1.44-4.54-4.22,0-3.18,3-4.71,5.85-4.71a7.48,7.48,0,0,1,6.3,3l-2.36,1.78a4.22,4.22,0,0,0-4-2.19c-1.63,0-2.86.62-2.86,1.68,0,1.25,1.42,1.54,3.11,1.93l1.85.4c2.24.49,4.36,1.4,4.36,4.26,0,3.69-3.47,5-6.61,5a7.92,7.92,0,0,1-6.53-3.18Z"/><path class="cls-1" d="M196.26,86.49c0,3.08-2.44,5-6.09,5s-6.08-2-6.08-5V76.05h2.84v9.7c0,1.85.79,3,3.24,3s3.25-1.16,3.25-3v-9.7h2.84Z"/><path class="cls-1" d="M204.38,76.05h6.29c3.21,0,5.09,1.9,5.09,4.55a4.23,4.23,0,0,1-3,4.45l3.37,6.09h-3.28l-2.93-5.56h-2.71v5.56h-2.84Zm2.84,7h3.09a2.24,2.24,0,0,0,2.48-2.27c0-1.37-.93-2.26-2.9-2.26h-2.67Z"/><path class="cls-1" d="M226.75,76.05h3.3l5,15.09h-3l-.87-2.93h-5.72l-.87,2.93h-3Zm1.67,2.75h0l-2.08,6.91h4.2Z"/><path class="cls-1" d="M241.5,76.05h2.61l6.33,10.74h.05V76.05h2.58V91.14h-2.6l-6.34-10.75h0V91.14H241.5Z"/><path class="cls-1" d="M270.88,81.11a3.26,3.26,0,0,0-3.33-2.82c-3,0-4.26,2.67-4.26,5.3s1.25,5.3,4.26,5.3c2,0,3.1-1.29,3.65-3L273.78,87c-1.2,3-3.22,4.5-6.23,4.5-4.83,0-7.22-3.67-7.22-7.93s2.71-7.93,7.22-7.93a5.78,5.78,0,0,1,6.06,4.75Z"/><path class="cls-1" d="M279.92,76.05H290.6v2.62h-7.85v3.44H290v2.5h-7.21v3.9h8.4v2.63H279.92Z"/></g></g></svg>